{"title":"Zazie.Dans.Le.Metro.1960.720p.BluRay.x264-CiNEFiLE","uid":6477657,"size":3519379289,"categoryP":"video","categoryS":"hd___movies","magnet":"?xt=urn:btih:5d14b4f76c8c0623708639fc49d737e88002f1bf&amp;dn=Zazie.Dans.Le.Metro.1960.720p.BluRay.x264-CiNEFiLE&amp;tr=udp%3A%2F%2Ftracker.openbittorrent.com%3A80&amp;tr=udp%3A%2F%2Fopen.demonii.com%3A1337&amp;tr=udp%3A%2F%2Ftracker.coppersurfer.tk%3A6969&amp;tr=udp%3A%2F%2Fexodus.desync.com%3A6969","seeders":1,"leechers":1,"uploader":"mfccorrea","files":2,"time":1308376730,"description":"When the mother of Zazie comes to Paris to meet her lover, she leaves her daughter with her uncle Gabriel. However the reckless and uncontrollable nephew leaves Gabriel's apartment and decides to visit Paris by subway. However the employees are on strike and the runaway girl gets Gabriel into trouble in a chaotic Paris (imdb)\n\nArguably Louis Malle's best work (1960). Based on Raymond Queneau's farcical novel about a little girl (Catherine Demongeot) left in Paris for a weekend with her decadent uncle (Philippe Noiret), this wild spree goes overboard reproducing Mack Sennett-style slapstick, parodying various films of the 1950s, and playing with editing and color effects (Henri Decae's cinematography is especially impressive), though gradually it becomes a rather disturbing nightmare about fascism. Forget the preposterous claim by a few critics that the movie's editing influenced Alain Resnais, but there's no doubt that Malle affected Richard Lester--and was clearly influenced himself by William Klein, whom he credited on the film as a visual consultant. A rather sharp, albeit soulless, film, packed with ideas and glitter and certainly worth a look\n\nD:\\BT Para Enviar\\Zazie.Dans.Le.Metro.1960.720p.BluRay.x264-CiNEFiLE\\Zazie.Dans.Le.Metro.1960.720p.BluRay.x264-CiNEFiLE.mkv\n   General\n      Complete name : Zazie.Dans.Le.Metro.1960.720p.BluRay.x264-CiNEFiLE.mkv\n      Format : Matroska\n      File size : 3.28 GiB\n      Duration : 1h 32mn\n      Overall bit rate : 5 057 Kbps\n      Encoded date : UTC 2011-06-16 14:01:37\n      Writing application : mkvmerge v4.8.0 ('I Got The...') built on May 24 2011 03:12:58\n      Writing library : libebml v1.2.0 + libmatroska v1.1.0\n   Video #1\n      ID : 1\n      Format : AVC\n      Format/Info : Advanced Video Codec\n      Format profile : &lt;a class=&quot;__cf_email__&quot; href=&quot;/cdn-cgi/l/email-protection&quot; data-cfemail=&quot;8fc7e6e8e7cfc3bba1be&quot;&gt;[email&amp;#160;protected]&lt;/a&gt;&lt;script cf-hash='f9e31' type=&quot;text/javascript&quot;&gt;\n/* &lt;![CDATA[ */!function(){try{var t=&quot;currentScript&quot;in document?document.currentScript:function(){for(var t=document.getElementsByTagName(&quot;script&quot;),e=t.length;e--;)if(t[e].getAttribute(&quot;cf-hash&quot;))return t[e]}();if(t&amp;&amp;t.previousSibling){var e,r,n,i,c=t.previousSibling,a=c.getAttribute(&quot;data-cfemail&quot;);if(a){for(e=&quot;&quot;,r=parseInt(a.substr(0,2),16),n=2;a.length-n;n+=2)i=parseInt(a.substr(n,2),16)^r,e+=String.fromCharCode(i);e=document.createTextNode(e),c.parentNode.replaceChild(e,c)}}}catch(u){}}();/* ]]&gt; */&lt;/script&gt;\n      Format settings, CABAC : Yes\n      Format settings, ReFrames : 5 frames\n      Muxing mode : Container profile=&lt;a class=&quot;__cf_email__&quot; href=&quot;/cdn-cgi/l/email-protection&quot; data-cfemail=&quot;0f5a6164616078614f3b213e&quot;&gt;[email&amp;#160;protected]&lt;/a&gt;&lt;script cf-hash='f9e31' type=&quot;text/javascript&quot;&gt;\n/* &lt;![CDATA[ */!function(){try{var t=&quot;currentScript&quot;in document?document.currentScript:function(){for(var t=document.getElementsByTagName(&quot;script&quot;),e=t.length;e--;)if(t[e].getAttribute(&quot;cf-hash&quot;))return t[e]}();if(t&amp;&amp;t.previousSibling){var e,r,n,i,c=t.previousSibling,a=c.getAttribute(&quot;data-cfemail&quot;);if(a){for(e=&quot;&quot;,r=parseInt(a.substr(0,2),16),n=2;a.length-n;n+=2)i=parseInt(a.substr(n,2),16)^r,e+=String.fromCharCode(i);e=document.createTextNode(e),c.parentNode.replaceChild(e,c)}}}catch(u){}}();/* ]]&gt; */&lt;/script&gt;\n      Codec ID : V_MPEG4/ISO/AVC\n      Duration : 1h 32mn\n      Bit rate : 4 508 Kbps\n      Nominal bit rate : 4 607 Kbps\n      Width : 960 pixels\n      Height : 720 pixels\n      Display aspect ratio : 4:3\n      Frame rate : 23.976 fps\n      Resolution : 24 bits\n      Colorimetry : 4:2:0\n      Scan type : Progressive\n      Bits/(Pixel*Frame) : 0.272\n      Stream size : 2.92 GiB (89%)\n      Writing library : x264 core 115 r2008 4c552d8\n   Audio #2\n      ID : 2\n      Format : AC-3\n      Format/Info : Audio Coding 3\n      Codec ID : A_AC3\n      Duration : 1h 32mn\n      Bit rate mode : Constant\n      Bit rate : 448 Kbps\n      Channel(s) : 1 channel\n      Channel positions : C\n      Sampling rate : 48.0 KHz\n      Stream size : 297 MiB (9%)\n      Language : French\n   Text #3\n      ID : 3\n      Format : UTF-8\n      Codec ID : S_TEXT/UTF8\n      Codec ID/Info : UTF-8 Plain Text\n      Language : English\n &lt;a href=&quot;\nhttp://www.imdb.com/title/tt0054494/&quot; rel=&quot;nofollow&quot; target=&quot;_NEW&quot;&gt;\nhttp://www.imdb.com/title/tt0054494/&lt;/a&gt;\n\nFrench audio; English (muxed in the mkv) and Portuguese srt subtitles.\n\n","torrent":{"xt":"urn:btih:5d14b4f76c8c0623708639fc49d737e88002f1bf","amp;dn":"Zazie.Dans.Le.Metro.1960.720p.BluRay.x264-CiNEFiLE","amp;tr":["udp%3A%2F%2Ftracker.openbittorrent.com%3A80","udp%3A%2F%2Fopen.demonii.com%3A1337","udp%3A%2F%2Ftracker.coppersurfer.tk%3A6969","udp%3A%2F%2Fexodus.desync.com%3A6969"],"infoHash":"5d14b4f76c8c0623708639fc49d737e88002f1bf","infoHashBuffer":{"type":"Buffer","data":[93,20,180,247,108,140,6,35,112,134,57,252,73,215,55,232,128,2,241,191]},"announce":[],"urlList":[]}}